<?xml version="1.0" encoding="UTF-8"?>
<svg xmlns="http://www.w3.org/2000/svg" viewBox="0 0 24 24" fill="none" stroke="white" stroke-width="2">
    <path d="M12 2a2 2 0 0 1 2 2v2a2 2 0 0 1-2 2 2 2 0 0 1-2-2V4a2 2 0 0 1 2-2z"></path>
    <path d="M12 8v8"></path>
    <path d="M5 3a2 2 0 0 0-2 2v2a2 2 0 0 0 2 2 2 2 0 0 0 2-2V5a2 2 0 0 0-2-2z"></path>
    <path d="M19 3a2 2 0 0 1 2 2v2a2 2 0 0 1-2 2 2 2 0 0 1-2-2V5a2 2 0 0 1 2-2z"></path>
    <path d="M5 15a2 2 0 0 0-2 2v2a2 2 0 0 0 2 2 2 2 0 0 0 2-2v-2a2 2 0 0 0-2-2z"></path>
    <path d="M19 15a2 2 0 0 1 2 2v2a2 2 0 0 1-2 2 2 2 0 0 1-2-2v-2a2 2 0 0 1 2-2z"></path>
</svg> 